<svg height="512" width="512" xmlns="http://www.w3.org/2000/svg"><path d="m496.633728 92.9542999c-18.2984619-33.3366623-50.6311951-43.1129379-73.4408264-43.6142654-28.0735474-.5013275-51.1338196 15.2904892-46.8724976 25.8175583 1.0026245 2.2559738 6.266571 14.0371704 9.5244141 18.7989731 4.7626038 7.0177765 13.0345154 1.5039825 16.0416565 0 20.5767822-10.6847229 47.8604431-7.1673126 61.4101868 20.3029556 21.305603 41.8600464-44.3658447 127.8344879-126.5811462 68.1781158-82.2152863-59.4056931-162.1746063-39.8539124-198.5192261-27.8228607-36.0939713 12.0318604-52.8884354 24.062912-38.6014099 51.885788 19.5509644 37.8494263 13.0345078 26.3188782 31.8326721 57.6510468 29.828186 49.8804626 95.4996796-23.0602722 95.4996796-23.0602722-48.8778229 73.4420776-90.7370605 55.644928-106.778717 30.0788269-14.5384979-23.0602417-25.8175583-49.8804626-25.8175583-49.8804626-123.5731927 44.616516-90.2365309 239.8779296-90.2365309 239.8779296l61.4109993.2506714c15.5403519-72.4393921 71.6874161-69.431427 81.2118301.2506714l46.8725128.2506409c41.3587189-141.3694763 146.3827667.5013428 146.3827667.5013428l61.1595154.2506409c-17.0443115-96.5023193 34.3401489-126.8317871 66.6749268-183.2295227 32.8361516-56.6484071 63.6673894-125.8295747 28.8267522-186.4877779zm-190.2472534 188.9932099c-30.0952759-9.9763184-19.2998962-40.606308-19.2998962-40.606308l20.0523071 6.5172577c-1.7546692 2.5066376-2.5066528 5.5146027-2.0053406 8.7724304.7519836 7.5198975 7.7705688 13.0345154 15.5403442 12.2825317 6.7679138-.7520142 12.0318604-6.0159607 12.783844-12.2825317l15.7910156 5.2639465c-2.2559814 9.2737427-20.0642699 27.6100464-42.8622741 20.0526734z"/></svg>